<svg width="520" height="158" viewBox="0 0 520 158" fill="none" xmlns="http://www.w3.org/2000/svg">
<path fill-rule="evenodd" clip-rule="evenodd" d="M150.646 0.646407C151.394 1.00339 151.711 1.8988 151.354 2.64637C145.184 15.5669 135.639 32.3855 119.45 41.1754C115.516 43.3109 111.515 43.4857 107.415 43.499C107.152 44.2441 106.351 44.6633 105.583 44.4407C100.391 42.9364 95.2208 41.2594 90.0572 39.5844L90.0571 39.5844L90.0567 39.5843L89.8122 39.505C84.5593 37.8011 79.3114 36.1018 74.0074 34.5731C63.4013 31.5162 52.6325 29.1603 41.3474 28.8479C40.4622 28.8234 39.4662 28.7818 38.3896 28.7356C38.3951 30.5326 38.4195 32.3438 38.444 34.1655L38.444 34.1666C38.5555 42.4412 38.6698 50.9318 37.0312 59.2773C36.2433 63.2905 35.1764 67.2589 34.1189 71.1708L34.0504 71.4242L34.0504 71.4243C33.2563 74.3616 32.4708 77.2671 31.7993 80.1759C37.1942 80.1472 42.6056 80.2332 47.9132 80.3194C50.9618 80.3689 54.2569 80.9014 57.45 81.4174L57.4511 81.4175L57.4524 81.4177L57.4531 81.4179L57.4542 81.418L57.4655 81.4199L57.4703 81.4207C58.1409 81.529 58.807 81.6366 59.4653 81.7388C63.3513 82.3421 67.0083 82.7671 70.2313 82.3044C74.9117 81.6325 77.4979 78.7832 80.1428 75.8692C80.727 75.2255 81.3142 74.5787 81.9274 73.9514C82.5065 73.359 83.4562 73.3483 84.0486 73.9274C84.641 74.5065 84.6517 75.4562 84.0726 76.0486C83.5958 76.5363 83.1021 77.0867 82.5785 77.6703C79.9276 80.6254 76.5115 84.4335 70.6576 85.274C66.9424 85.8073 62.882 85.3052 59.0051 84.7033C58.2945 84.593 57.5908 84.4795 56.8945 84.3673L56.8929 84.367C53.7057 83.8532 50.6754 83.3646 47.8645 83.319C42.328 83.2291 36.7192 83.1404 31.1512 83.18C30.4577 86.6551 29.9512 90.1284 29.4385 93.6441L29.4385 93.6441L29.4385 93.6442L29.4385 93.6443C29.3098 94.5267 29.1807 95.4119 29.0482 96.3003C28.3753 100.812 27.6172 105.38 26.374 109.946C25.0834 114.687 23.3714 120.098 19.766 124.305C16.0846 128.601 10.5628 131.5 2 131.5C1.17157 131.5 0.5 130.828 0.5 130C0.5 129.172 1.17157 128.5 2 128.5C9.78628 128.5 14.4382 125.912 17.488 122.353C20.6139 118.705 22.1908 113.892 23.4794 109.158C24.6737 104.771 25.4111 100.349 26.081 95.8578C26.2103 94.9911 26.3372 94.1206 26.4645 93.2472C26.9481 89.9303 27.4378 86.571 28.0869 83.2156C26.2908 83.2451 24.5012 83.2905 22.7219 83.3561C22.3913 83.3682 21.785 83.4512 20.9139 83.5732L20.9094 83.5738L20.9093 83.5738L20.909 83.5739C20.0868 83.689 19.1007 83.827 18.136 83.9153C17.1844 84.0023 16.1667 84.0499 15.2967 83.9548C14.8623 83.9073 14.3914 83.817 13.9579 83.6353C13.5268 83.4545 13.0087 83.1295 12.6856 82.542C12.2864 81.8161 12.5513 80.904 13.2772 80.5048C13.9295 80.1461 14.7321 80.3236 15.1779 80.89C15.262 80.9163 15.4049 80.9487 15.6229 80.9726C16.1874 81.0343 16.9642 81.0099 17.8628 80.9277C18.7463 80.8469 19.664 80.7189 20.498 80.6021L20.5906 80.5892L20.5907 80.5892C21.3467 80.4832 22.107 80.3767 22.6114 80.3581C24.6362 80.2835 26.6732 80.2347 28.7159 80.2057C29.4354 76.9993 30.2946 73.8212 31.1439 70.6799L31.144 70.6796L31.1441 70.6794L31.2229 70.3879C32.2839 66.463 33.3229 62.5934 34.0875 58.6993C35.6599 50.6909 35.553 42.598 35.4442 34.3565V34.3564V34.3564V34.3563V34.356L35.4442 34.3555C35.4191 32.4493 35.3938 30.5352 35.3892 28.6122C32.7362 28.5139 29.8151 28.4481 26.9537 28.5532C24.3258 28.6498 21.8215 28.8901 19.7006 29.3652C17.5478 29.8475 15.9625 30.5352 15.0116 31.4037C14.3999 31.9624 13.4511 31.9194 12.8924 31.3077C12.3338 30.696 12.3767 29.7473 12.9884 29.1886C14.5115 27.7975 16.7029 26.9625 19.0447 26.4378C21.4183 25.9061 24.1264 25.6551 26.8435 25.5553C30.8505 25.408 35.0372 25.5879 38.3382 25.7298H38.3383H38.3383H38.3384L38.3385 25.7298L38.3386 25.7299C39.4926 25.7795 40.5384 25.8244 41.4304 25.8491C53.0748 26.1714 64.1179 28.6006 74.8382 31.6904C80.1973 33.235 85.4913 34.9495 90.7378 36.6513L90.962 36.7241C95.6006 38.2287 100.202 39.7212 104.809 41.0877C105.083 40.7303 105.515 40.5 106 40.5C110.728 40.5 114.411 40.4973 118.018 38.5389C133.298 30.2428 142.5 14.2245 148.646 1.35363C149.003 0.606064 149.899 0.289429 150.646 0.646407ZM108.951 59.5C109.78 59.5 110.451 60.1716 110.451 61C110.451 63.027 110.463 65.0623 110.476 67.1031V67.1043V67.1056V67.1068V67.108V67.1094V67.1107V67.1112C110.513 73.4515 110.551 79.8456 110.229 86.2145C109.853 93.6424 108.017 100.831 105.908 107.873C105.326 109.818 104.725 111.746 104.127 113.665L104.126 113.667C102.542 118.749 100.977 123.77 99.828 128.884C99.6181 129.818 99.327 130.805 99.0327 131.778L98.9407 132.082L98.894 132.236C98.6408 133.07 98.3899 133.896 98.1684 134.726C97.6933 136.506 97.4094 138.114 97.5257 139.488C97.9385 139.445 98.536 139.291 99.2725 139.027C100.511 138.584 101.688 138.011 102.533 137.601C102.882 137.431 103.175 137.289 103.391 137.195C104.151 136.865 105.035 137.213 105.365 137.973C105.695 138.733 105.346 139.617 104.586 139.947C104.509 139.98 104.347 140.059 104.121 140.169L104.121 140.169L104.121 140.169L104.12 140.169L104.12 140.169C103.315 140.56 101.708 141.341 100.285 141.851C99.3631 142.182 98.2938 142.49 97.358 142.5C96.8879 142.505 96.2892 142.438 95.7428 142.115C95.1244 141.75 94.7377 141.152 94.6232 140.447C94.2756 138.309 94.7207 136.01 95.2699 133.952C95.5057 133.068 95.7737 132.186 96.0265 131.354C96.072 131.204 96.117 131.056 96.1612 130.91C96.4563 129.934 96.7177 129.042 96.9009 128.226C98.0787 122.985 99.6988 117.788 101.295 112.666L101.295 112.665C101.886 110.77 102.474 108.886 103.034 107.013C105.127 100.024 106.876 93.1173 107.233 86.0628C107.55 79.7865 107.513 73.5116 107.476 67.1916C107.464 65.1331 107.451 63.0697 107.451 61C107.451 60.1716 108.123 59.5 108.951 59.5ZM138.74 92.5C134.302 92.5 131.553 93.7499 129.482 95.779C128.492 96.7496 127.697 97.8589 126.966 98.9574C126.736 99.3024 126.515 99.6419 126.296 99.9791L126.295 99.9795C125.793 100.752 125.298 101.512 124.725 102.295C124.195 103.02 123.52 103.874 122.774 104.82L122.774 104.82C121.006 107.06 118.833 109.813 117.212 112.568C114.936 116.44 113.205 121.18 115.78 125.223C116.675 126.63 118.395 127.163 119.909 127.371C121.517 127.591 123.394 127.511 125.204 127.274C127.026 127.035 128.857 126.627 130.397 126.147C131.868 125.688 133.287 125.1 134.111 124.41C136.933 122.048 138.525 119.312 139.685 116.564C140.247 115.234 140.715 113.884 141.163 112.59L141.195 112.498C141.658 111.16 142.104 109.881 142.635 108.642C143.615 106.357 144.014 104.228 144.17 102.089C144.219 102.179 144.267 102.27 144.317 102.362C145.037 103.715 145.778 105.233 146.377 106.484C146.528 106.799 146.674 107.105 146.811 107.391L146.812 107.394L146.813 107.396L146.813 107.397C147.189 108.186 147.491 108.82 147.617 109.038C150.829 114.629 155.336 119.925 160.29 124.699C161.949 126.298 164.05 126.478 166.014 126.03C167.937 125.592 169.916 124.523 171.709 123.328C173.523 122.12 175.256 120.709 176.691 119.488C177.245 119.016 177.741 118.586 178.178 118.206L178.182 118.203L178.185 118.2L178.185 118.2L178.186 118.199C178.922 117.56 179.494 117.063 179.904 116.752C180.565 116.253 180.696 115.312 180.197 114.651C179.697 113.99 178.756 113.86 178.095 114.359C177.607 114.729 176.898 115.344 176.087 116.048L176.086 116.048C175.662 116.416 175.21 116.809 174.747 117.203C173.34 118.4 171.713 119.722 170.046 120.831C168.36 121.955 166.74 122.788 165.347 123.106C163.995 123.414 163.062 123.205 162.371 122.539C157.546 117.889 153.245 112.812 150.218 107.543L150.217 107.543L150.213 107.535C150.208 107.526 150.199 107.509 150.186 107.484C150.165 107.443 150.138 107.389 150.105 107.322C150.039 107.187 149.954 107.011 149.852 106.798C149.771 106.63 149.678 106.434 149.576 106.219L149.575 106.218C149.426 105.906 149.258 105.554 149.082 105.187C148.479 103.928 147.716 102.363 146.965 100.953C146.241 99.5922 145.448 98.2186 144.783 97.4555C144.612 97.26 144.384 97.0258 144.107 96.8451C143.875 96.6939 143.266 96.3586 142.523 96.6128C141.756 96.8751 141.483 97.5417 141.393 97.8426C141.29 98.1852 141.266 98.5506 141.266 98.87C141.266 102.045 141.098 104.615 139.878 107.46C139.298 108.813 138.819 110.191 138.36 111.516L138.342 111.568C137.884 112.89 137.444 114.16 136.922 115.397C135.874 117.877 134.523 120.154 132.186 122.11C131.856 122.386 130.944 122.834 129.504 123.283C128.132 123.711 126.47 124.083 124.815 124.299C123.147 124.518 121.561 124.569 120.316 124.398C118.976 124.215 118.453 123.836 118.31 123.612C116.754 121.167 117.554 117.905 119.798 114.089C121.313 111.513 123.236 109.08 124.953 106.907L124.953 106.907L124.954 106.906C125.749 105.9 126.5 104.95 127.146 104.067C127.77 103.214 128.338 102.342 128.858 101.542L128.86 101.539L128.863 101.534L128.867 101.529C129.072 101.213 129.271 100.908 129.463 100.62C130.167 99.5623 130.822 98.6663 131.582 97.9217C133.012 96.5204 134.967 95.5 138.74 95.5C139.569 95.5 140.24 94.8284 140.24 94C140.24 93.1716 139.569 92.5 138.74 92.5ZM201.385 88.5072C202.376 88.5639 203.342 88.9728 204 89.902C204.479 90.5779 204.32 91.5142 203.644 91.993C202.968 92.4719 202.031 92.3121 201.552 91.6361L201.552 91.636C201.515 91.5839 201.468 91.5169 201.214 91.5023C200.898 91.4842 200.393 91.5693 199.679 91.8505C198.263 92.4086 196.494 93.5501 194.697 94.9722C192.92 96.3791 191.205 97.9895 189.904 99.403C189.253 100.11 188.722 100.75 188.344 101.276C188.155 101.538 188.015 101.757 187.92 101.929C187.836 102.081 187.808 102.159 187.803 102.174L187.803 102.174C187.802 102.177 187.802 102.177 187.802 102.175C187.465 103.569 188.156 105.165 190.38 107.038C192.555 108.87 195.816 110.619 199.537 112.229C205.067 114.622 211.295 116.584 215.95 118.05L215.953 118.051C217.566 118.559 218.99 119.008 220.131 119.394C220.831 119.631 221.431 119.882 221.914 120.157C222.37 120.415 222.869 120.775 223.186 121.298C223.569 121.929 223.609 122.677 223.266 123.344C222.987 123.888 222.519 124.248 222.148 124.48C221.383 124.958 220.292 125.335 219.14 125.649C217.952 125.973 216.557 126.265 215.093 126.526C210.444 127.356 204.622 127.945 202.259 128.184C201.701 128.24 201.337 128.277 201.225 128.293C199.225 128.58 197.212 128.894 195.186 129.211L195.181 129.212C187.935 130.344 180.53 131.5 173 131.5C172.172 131.5 171.5 130.828 171.5 130C171.5 129.172 172.172 128.5 173 128.5C180.274 128.5 187.373 127.392 194.583 126.267C196.644 125.946 198.714 125.623 200.799 125.324C201.033 125.29 201.594 125.233 202.391 125.152L202.392 125.152C205.002 124.886 210.138 124.364 214.566 123.573C215.984 123.32 217.283 123.046 218.352 122.755C218.826 122.625 219.232 122.499 219.569 122.378C219.446 122.332 219.313 122.285 219.168 122.236C218.116 121.879 216.759 121.452 215.198 120.96L215.198 120.96L215.197 120.96L215.197 120.96L215.197 120.96C210.531 119.49 204.035 117.445 198.346 114.982C194.547 113.338 190.963 111.451 188.447 109.333C185.98 107.255 184.132 104.587 184.886 101.47C185.044 100.819 185.477 100.124 185.909 99.5233C186.379 98.8702 186.994 98.135 187.697 97.3712C189.104 95.842 190.935 94.1245 192.835 92.62C194.716 91.1309 196.757 89.7776 198.579 89.0594C199.485 88.7025 200.455 88.454 201.385 88.5072ZM228.125 21.0079C227.577 20.3865 226.629 20.327 226.008 20.875C225.387 21.4229 225.327 22.3708 225.875 22.9921C235.062 33.4104 238.567 44.4759 241.542 56.7512C243.128 63.2961 243.788 69.8343 244.342 76.4633C244.416 77.3488 244.488 78.2366 244.56 79.1262V79.1264C245.027 84.8662 245.5 90.6869 246.523 96.5234C247.635 102.871 247.929 115.408 247.918 125.62C247.512 129.88 247.5 134.123 247.5 138.192C247.5 139.07 247.506 139.737 247.516 140.209C247.521 140.445 247.527 140.641 247.535 140.794C247.541 140.904 247.552 141.109 247.59 141.285L247.59 141.287C247.599 141.327 247.631 141.481 247.717 141.655C247.754 141.731 247.872 141.963 248.126 142.168C248.454 142.431 249.003 142.626 249.595 142.405C250.038 142.239 250.26 141.922 250.322 141.828C250.408 141.699 250.455 141.585 250.476 141.53C250.52 141.416 250.542 141.318 250.551 141.279C250.584 141.127 250.6 140.947 250.61 140.83C250.635 140.543 250.66 140.105 250.684 139.554C250.781 137.335 250.884 132.936 250.911 127.679C250.915 127.055 250.917 126.419 250.918 125.772C251.385 120.936 252.376 116.202 254.47 111.721C256.187 108.046 258.603 104.524 261.073 100.923L261.074 100.921C262.066 99.4746 263.067 98.0154 264.035 96.528C265.434 94.378 266.863 92.3646 269.286 91.1447C270.165 90.7019 270.893 90.5993 271.506 90.6757C272.128 90.7531 272.75 91.0291 273.384 91.5308C274.695 92.5685 275.884 94.4346 276.902 96.7341C278.92 101.29 279.949 106.797 280.187 108.239C281.766 117.813 282.5 127.886 282.5 137.558C282.5 138.386 283.172 139.058 284 139.058C284.828 139.058 285.5 138.386 285.5 137.558C285.5 127.741 284.755 117.503 283.147 107.751C282.899 106.252 281.823 100.436 279.646 95.5193C278.566 93.0823 277.135 90.6741 275.245 89.1783C274.279 88.4133 273.155 87.8578 271.877 87.6987C270.592 87.5386 269.268 87.7947 267.937 88.4652C264.727 90.0815 262.925 92.7343 261.521 94.8914C260.646 96.2352 259.705 97.6075 258.748 99.0033L258.746 99.0061L258.742 99.0122L258.74 99.0148L258.74 99.0151C256.216 102.695 253.581 106.537 251.752 110.451C251.389 111.227 251.057 112.01 250.754 112.798C250.562 106.243 250.179 100.006 249.477 96.0056C248.481 90.3165 248.019 84.6468 247.552 78.898C247.479 78.0052 247.407 77.1105 247.332 76.2135C246.777 69.571 246.103 62.8327 244.458 56.0445C241.453 43.6466 237.81 31.9903 228.125 21.0079ZM459.672 16.0103C459.948 15.7184 460.251 15.4392 460.585 15.1735C461.233 14.6576 461.34 13.7139 460.824 13.0657C460.308 12.4176 459.365 12.3105 458.717 12.8265C458.048 13.3589 457.477 13.9284 456.983 14.5221C454.552 14.6172 452.729 15.0236 451.075 15.8387C449.232 16.7471 447.702 18.1226 445.859 19.7803L445.822 19.8132C436.611 28.0968 427.114 36.0867 417.555 44.1287L417.555 44.1291L417.554 44.1299C414.877 46.3816 412.196 48.6373 409.515 50.9047C406.978 53.0502 404.937 55.584 403.057 58.0776C402.63 58.6434 402.214 59.2044 401.802 59.759L401.799 59.7629C400.369 61.6895 398.997 63.5374 397.463 65.2334C396.362 66.4511 395.603 67.6837 394.941 68.8631C394.749 69.2043 394.57 69.5331 394.394 69.8545L394.394 69.8549C393.946 70.6763 393.524 71.4488 392.996 72.2531C392.844 72.4856 392.73 72.797 392.744 73.1581C392.758 73.506 392.885 73.7781 393.004 73.9572C393.213 74.2713 393.484 74.4308 393.576 74.4835C393.805 74.6137 394.057 74.6936 394.223 74.742C394.6 74.8517 395.121 74.9593 395.721 75.0658C396.943 75.2825 398.707 75.5307 400.827 75.7972C405.075 76.3315 410.847 76.9513 416.794 77.553C427.876 78.6743 439.605 79.7368 443.309 80.0723L443.994 80.1343C444.366 80.1682 444.838 80.2072 445.39 80.2529C448.103 80.4775 452.758 80.8627 457.117 81.5807C459.747 82.0137 462.182 82.5549 463.978 83.2223C464.879 83.5574 465.544 83.8971 465.979 84.2204C466.426 84.5535 466.468 84.746 466.469 84.7523C466.598 85.4566 466.328 86.4325 465.376 87.7234C464.448 88.9829 463.039 90.3112 461.384 91.6256C458.576 93.8544 455.285 95.8724 452.931 97.3157L452.93 97.3159C452.661 97.4813 452.403 97.6391 452.16 97.7888C452.099 97.8264 452.039 97.8635 451.98 97.9001C451.906 97.9457 451.834 97.9906 451.763 98.0346C443.15 103.387 433.817 108.201 424.366 113.002C423.547 113.418 422.726 113.834 421.906 114.25C413.279 118.626 404.601 123.029 396.413 127.824C389.841 131.674 383.377 135.612 376.932 139.548L375.622 140.348C369.613 144.019 363.615 147.683 357.538 151.278C357.3 151.419 356.992 151.611 356.634 151.834L356.634 151.834L356.633 151.835C355.745 152.388 354.557 153.128 353.413 153.726C352.827 154.032 352.343 154.251 351.985 154.379C351.721 154.149 351.377 154.01 351 154.01C350.172 154.01 349.5 154.682 349.5 155.51C349.5 155.818 349.561 156.195 349.777 156.558C350.003 156.938 350.332 157.191 350.677 157.335C351.278 157.586 351.893 157.496 352.25 157.419C353.039 157.251 353.973 156.819 354.803 156.385C354.908 156.33 355.014 156.273 355.121 156.216C355.626 156.582 356.329 156.605 356.866 156.224C359.081 154.657 361.742 153.304 364.58 151.985C365.535 151.541 366.52 151.097 367.51 150.65L367.511 150.65L367.512 150.649C369.409 149.794 371.328 148.929 373.111 148.032C378.713 145.214 384.234 142.358 389.74 139.509C401.445 133.453 413.089 127.43 425.33 121.867C429.963 119.762 434.624 117.681 439.287 115.6C456.916 107.731 474.581 99.8451 490.918 90.5513C499.159 85.863 507.112 80.4303 513.369 74.2525C513.577 74.0472 513.901 73.7691 514.333 73.3984C514.532 73.2277 514.754 73.0374 514.998 72.8254C515.726 72.1932 516.581 71.4255 517.335 70.6162C518.067 69.8307 518.813 68.8922 519.206 67.9076C519.624 66.8618 519.716 65.4994 518.652 64.3917C518.043 63.758 517.185 63.3839 516.369 63.1388C515.518 62.8835 514.524 62.7142 513.469 62.6014C511.358 62.3755 508.822 62.3579 506.329 62.4278C503.827 62.498 501.32 62.6582 499.256 62.7994C498.927 62.8218 498.613 62.8436 498.312 62.8644L498.312 62.8644C496.682 62.9773 495.478 63.0606 494.872 63.0606H494.764H494.656H494.548H494.441H494.333H494.225H494.117H494.009H493.901H493.793H493.685H493.578H493.47H493.362H493.254H493.146H493.038H492.93H492.822H492.714H492.607H492.499H492.391H492.283H492.175H492.067H491.959H491.851H491.744H491.636H491.528H491.42H491.312H491.204H491.096H490.988H490.88H490.773H490.665H490.557H490.449H490.341H490.233H490.125H490.017H489.91H489.802H489.694H489.586H489.478H489.37H489.262H489.154H489.046H488.939H488.831H488.723H488.615H488.507H488.399H488.291H488.183H488.076H487.968H487.86H487.752H487.644H487.536H487.428H487.32H487.212H487.105H486.997H486.889H486.781H486.673H486.565H486.457H486.349H486.242H486.134H486.026H485.918H485.81H485.702H485.594H485.486H485.378H485.271H485.163H485.055H484.947H484.839H484.731H484.623H484.515H484.408H484.3H484.192H484.084H483.976H483.868H483.76H483.652H483.544H483.437H483.329H483.221H483.113H483.005H482.897H482.789H482.681H482.574H482.466H482.358H482.25H482.142H482.034H481.926H481.818H481.71H481.603H481.495H481.387H481.279H481.171H481.063H480.955H480.847H480.74H480.632H480.524H480.416H480.308H480.2H480.092H479.984H479.876H479.769H479.661H479.553H479.445H479.337H479.229H479.121H479.013H478.906H478.798H478.69H478.582H478.474H478.366H478.258H478.15H478.042H477.935H477.827H477.719H477.611H477.503H477.395H477.287H477.179H477.072H476.964H476.856H476.748H476.64H476.532H476.424H476.316H476.208H476.101H475.993H475.885H475.777H475.669H475.561H475.453H475.345H475.238H475.13H475.022H474.914H474.806H474.698H474.59H474.482H474.374H474.267H474.159H474.051H473.943H473.835H473.727H473.619H473.511H473.404H473.296H473.188H473.08H472.972H472.864H472.756H472.648H472.54H472.433H472.325H472.217H472.109H472.001H471.893H471.785H471.677H471.57H471.462H471.354H471.246H471.138H471.03H470.922H470.814H470.706H470.599H470.491H470.383H470.275H470.167H470.059H469.951H469.843H469.736H469.628H469.52H469.412H469.304H469.196H469.088H468.98H468.872H468.765H468.657H468.549H468.441H468.333H468.225H468.117H468.009H467.902H467.794H467.686H467.578H467.47H467.362H467.254H467.146H467.038H466.931H466.823H466.715H466.607H466.499H466.391H466.283H466.175H466.068H465.96H465.852H465.744H465.636H465.528H465.42H465.312H465.204H465.097H464.989H464.881H464.773H464.665H464.557H464.449H464.341H464.234H464.126H464.018H463.91H463.802H463.694H463.586H463.478H463.37H463.263H463.155H463.047H462.939H462.831H462.723H462.615H462.507H462.4H462.292H462.184H462.076H461.968H461.86H461.752H461.644H461.536H461.429H461.321H461.213H461.105H460.997H460.889H460.781H460.673H460.566H460.458H460.35H460.242H460.134H460.026H459.918H459.81H459.702H459.595H459.487H459.379H459.271H459.163H459.055H458.947H458.839H458.732H458.624H458.516H458.408H458.3H458.192H458.084H457.976H457.868H457.761H457.653H457.545H457.437H457.329H457.221H457.113H457.005H456.898H456.79H456.682H456.574H456.466H456.358H456.25H456.142H456.034H455.927H455.819H455.711H455.603H455.495H455.387H455.279H455.171H455.064H454.956H454.848H454.74H454.632H454.524H454.416H454.308H454.2H454.093H453.985H453.877H453.769H453.661H453.553H453.445H453.337H453.23H453.122H453.014H452.906H452.798H452.69H452.582H452.474H452.366H452.259H452.151H452.043H451.935H451.827H451.719H451.611H451.503H451.396H451.288H451.18H451.072H450.964H450.856H450.748H450.64H450.532H450.425H450.317H450.209H450.101H449.993H449.885H449.777H449.669H449.562H449.454H449.346H449.238H449.13H449.022H448.914H448.806H448.698H448.591H448.483H448.375H448.267H448.159H448.051H447.943H447.835H447.728H447.62H447.512H447.404H447.296H447.188H447.08H446.972H446.864H446.757H446.649H446.541H446.433H446.325H446.217H446.109H446.001H445.894H445.786H445.678H445.57H445.462H445.354H445.246H445.138H445.03H444.923H444.815H444.707H444.599H444.491H444.383H444.275H444.167H444.06H443.952H443.844H443.736H443.628H443.52H443.412H443.304H443.196H443.089H442.981H442.873H442.765H442.657H442.549H442.441H442.333H442.226H442.118H442.01H441.902H441.794H441.686H441.578H441.47H441.362H441.255H441.147H441.039H440.931H440.823H440.715H440.607H440.499H440.392H440.284H440.176H440.068H439.96H439.852H439.744H439.636C438.741 63.0606 437.76 63.0944 436.788 63.1278C436.283 63.1452 435.781 63.1624 435.295 63.1749C434.629 63.1919 433.979 63.2006 433.352 63.1921C433.407 63.088 433.46 62.9883 433.504 62.9015L433.504 62.9002L433.505 62.8997C433.542 62.8257 433.62 62.6725 433.671 62.5283C434.094 61.3309 434.956 60.2852 436.124 59.1143C436.401 58.8372 436.701 58.5475 437.014 58.2458L437.014 58.2455C437.94 57.3526 438.974 56.3553 439.814 55.274C443.736 50.228 447.946 44.6444 450.357 38.8692C451.109 37.068 451.699 35.2407 452.266 33.4833C452.375 33.1475 452.482 32.8142 452.59 32.4841C453.271 30.3991 453.969 28.4038 454.951 26.4682C455.488 25.409 455.886 24.3077 456.236 23.2529C456.352 22.9041 456.461 22.5663 456.568 22.2351L456.569 22.232C456.796 21.5294 457.013 20.8571 457.266 20.1745C457.627 19.1987 458.032 18.2864 458.56 17.4494C459.197 17.2793 459.667 16.7001 459.672 16.0103ZM455.029 17.7158C453.973 17.8886 453.145 18.1629 452.401 18.5295C450.988 19.2259 449.765 20.3025 447.828 22.0439C438.576 30.3643 429.029 38.3966 419.463 46.444L419.459 46.4475L419.457 46.4488C416.788 48.6943 414.118 50.941 411.452 53.1954C409.183 55.1144 407.307 57.4241 405.452 59.8836C405.057 60.4083 404.66 60.9426 404.26 61.4813C402.816 63.4274 401.329 65.4311 399.688 67.2458C398.807 68.2203 398.175 69.2292 397.557 70.3316C397.401 70.6086 397.243 70.8988 397.079 71.1982C396.908 71.5116 396.732 71.8351 396.547 72.1642C397.68 72.3557 399.269 72.5778 401.201 72.8207C405.412 73.3502 411.154 73.9671 417.096 74.5683C428.161 75.6878 439.876 76.749 443.58 77.0845L444.265 77.1466C444.614 77.1783 445.064 77.2155 445.598 77.2597C448.293 77.4823 453.108 77.88 457.605 78.6206C460.293 79.0633 462.954 79.6413 465.023 80.4102C466.054 80.7934 467.014 81.2511 467.77 81.8137C468.512 82.3665 469.226 83.1484 469.421 84.2141C469.77 86.1309 468.925 87.9648 467.792 89.503C466.635 91.0725 464.991 92.5923 463.249 93.9753C460.283 96.3295 456.807 98.4594 454.464 99.8951C454.054 100.146 453.678 100.376 453.346 100.583C444.61 106.012 435.169 110.879 425.725 115.676C424.908 116.091 424.09 116.506 423.273 116.92L423.273 116.921C414.631 121.305 406.034 125.666 397.93 130.413C391.999 133.886 386.154 137.434 380.315 140.998C382.972 139.632 385.624 138.26 388.276 136.888L388.277 136.888C400.019 130.813 411.778 124.73 424.089 119.136C428.765 117.011 433.455 114.917 438.136 112.828C455.748 104.966 473.238 97.1579 489.434 87.9437C497.554 83.3242 505.262 78.0413 511.261 72.1178C511.548 71.8345 512.003 71.4441 512.485 71.0304L512.486 71.0298C512.666 70.8752 512.85 70.7174 513.031 70.5606C513.74 69.9441 514.497 69.2606 515.14 68.5712C515.804 67.858 516.238 67.25 516.42 66.7955C516.492 66.6141 516.5 66.5159 516.5 66.4828C516.497 66.4794 516.493 66.4752 516.489 66.4703C516.413 66.3916 516.146 66.2042 515.506 66.0121C514.901 65.8303 514.107 65.6867 513.15 65.5844C511.24 65.3799 508.861 65.358 506.414 65.4267C503.976 65.4951 501.518 65.6516 499.46 65.7924C499.153 65.8134 498.852 65.8343 498.56 65.8546L498.545 65.8556C496.933 65.9675 495.592 66.0606 494.872 66.0606H494.764H494.656H494.548H494.441H494.333H494.225H494.117H494.009H493.901H493.793H493.685H493.578H493.47H493.362H493.254H493.146H493.038H492.93H492.822H492.714H492.607H492.499H492.391H492.283H492.175H492.067H491.959H491.851H491.744H491.636H491.528H491.42H491.312H491.204H491.096H490.988H490.88H490.773H490.665H490.557H490.449H490.341H490.233H490.125H490.017H489.91H489.802H489.694H489.586H489.478H489.37H489.262H489.154H489.046H488.939H488.831H488.723H488.615H488.507H488.399H488.291H488.183H488.076H487.968H487.86H487.752H487.644H487.536H487.428H487.32H487.212H487.105H486.997H486.889H486.781H486.673H486.565H486.457H486.349H486.242H486.134H486.026H485.918H485.81H485.702H485.594H485.486H485.378H485.271H485.163H485.055H484.947H484.839H484.731H484.623H484.515H484.408H484.3H484.192H484.084H483.976H483.868H483.76H483.652H483.544H483.437H483.329H483.221H483.113H483.005H482.897H482.789H482.681H482.574H482.466H482.358H482.25H482.142H482.034H481.926H481.818H481.71H481.603H481.495H481.387H481.279H481.171H481.063H480.955H480.847H480.74H480.632H480.524H480.416H480.308H480.2H480.092H479.984H479.876H479.769H479.661H479.553H479.445H479.337H479.229H479.121H479.013H478.906H478.798H478.69H478.582H478.474H478.366H478.258H478.15H478.042H477.935H477.827H477.719H477.611H477.503H477.395H477.287H477.179H477.072H476.964H476.856H476.748H476.64H476.532H476.424H476.316H476.208H476.101H475.993H475.885H475.777H475.669H475.561H475.453H475.345H475.238H475.13H475.022H474.914H474.806H474.698H474.59H474.482H474.374H474.267H474.159H474.051H473.943H473.835H473.727H473.619H473.511H473.404H473.296H473.188H473.08H472.972H472.864H472.756H472.648H472.54H472.433H472.325H472.217H472.109H472.001H471.893H471.785H471.677H471.57H471.462H471.354H471.246H471.138H471.03H470.922H470.814H470.706H470.599H470.491H470.383H470.275H470.167H470.059H469.951H469.843H469.736H469.628H469.52H469.412H469.304H469.196H469.088H468.98H468.872H468.765H468.657H468.549H468.441H468.333H468.225H468.117H468.009H467.902H467.794H467.686H467.578H467.47H467.362H467.254H467.146H467.038H466.931H466.823H466.715H466.607H466.499H466.391H466.283H466.175H466.068H465.96H465.852H465.744H465.636H465.528H465.42H465.312H465.204H465.097H464.989H464.881H464.773H464.665H464.557H464.449H464.341H464.234H464.126H464.018H463.91H463.802H463.694H463.586H463.478H463.37H463.263H463.155H463.047H462.939H462.831H462.723H462.615H462.507H462.4H462.292H462.184H462.076H461.968H461.86H461.752H461.644H461.536H461.429H461.321H461.213H461.105H460.997H460.889H460.781H460.673H460.566H460.458H460.35H460.242H460.134H460.026H459.918H459.81H459.702H459.595H459.487H459.379H459.271H459.163H459.055H458.947H458.839H458.732H458.624H458.516H458.408H458.3H458.192H458.084H457.976H457.868H457.761H457.653H457.545H457.437H457.329H457.221H457.113H457.005H456.898H456.79H456.682H456.574H456.466H456.358H456.25H456.142H456.034H455.927H455.819H455.711H455.603H455.495H455.387H455.279H455.171H455.064H454.956H454.848H454.74H454.632H454.524H454.416H454.308H454.2H454.093H453.985H453.877H453.769H453.661H453.553H453.445H453.337H453.23H453.122H453.014H452.906H452.798H452.69H452.582H452.474H452.366H452.259H452.151H452.043H451.935H451.827H451.719H451.611H451.503H451.396H451.288H451.18H451.072H450.964H450.856H450.748H450.64H450.532H450.425H450.317H450.209H450.101H449.993H449.885H449.777H449.669H449.562H449.454H449.346H449.238H449.13H449.022H448.914H448.806H448.698H448.591H448.483H448.375H448.267H448.159H448.051H447.943H447.835H447.728H447.62H447.512H447.404H447.296H447.188H447.08H446.972H446.864H446.757H446.649H446.541H446.433H446.325H446.217H446.109H446.001H445.894H445.786H445.678H445.57H445.462H445.354H445.246H445.138H445.03H444.923H444.815H444.707H444.599H444.491H444.383H444.275H444.167H444.06H443.952H443.844H443.736H443.628H443.52H443.412H443.304H443.196H443.089H442.981H442.873H442.765H442.657H442.549H442.441H442.333H442.226H442.118H442.01H441.902H441.794H441.686H441.578H441.47H441.362H441.255H441.147H441.039H440.931H440.823H440.715H440.607H440.499H440.392H440.284H440.176H440.068H439.96H439.852H439.744H439.636C438.789 66.0606 437.904 66.0912 436.969 66.1236L436.969 66.1236C436.452 66.1415 435.92 66.1599 435.371 66.1739C433.876 66.2121 432.306 66.215 430.858 66.0511C430.356 65.9943 429.934 65.6962 429.704 65.2812C429.523 64.9557 429.511 64.654 429.511 64.536C429.51 64.287 429.571 64.086 429.589 64.0257L429.589 64.0247C429.64 63.8569 429.714 63.6892 429.768 63.5717C429.887 63.3128 430.055 62.9905 430.213 62.6936C430.304 62.5222 430.407 62.3325 430.5 62.1595L430.553 62.0629C430.597 61.981 430.638 61.9048 430.673 61.8386C430.708 61.7732 430.74 61.7146 430.767 61.6628C430.791 61.6174 430.812 61.5774 430.829 61.5429L430.839 61.523C430.848 61.5052 430.854 61.4923 430.858 61.4837C431.522 59.641 432.787 58.2118 434.001 56.9954C434.367 56.6279 434.724 56.2837 435.069 55.9506C435.946 55.1049 436.748 54.3312 437.446 53.433C441.397 48.3489 445.354 43.0645 447.589 37.7133C448.288 36.0377 448.834 34.3479 449.402 32.5909L449.412 32.561C449.519 32.2275 449.628 31.8916 449.738 31.553C450.426 29.4467 451.182 27.2654 452.275 25.111C452.71 24.2548 453.052 23.3234 453.39 22.3067C453.487 22.0123 453.587 21.7048 453.688 21.3898L453.69 21.3856C453.927 20.6518 454.177 19.8774 454.452 19.1334C454.626 18.6634 454.815 18.1891 455.029 17.7158ZM351.521 154.501C351.522 154.501 351.529 154.5 351.541 154.5C351.527 154.502 351.521 154.502 351.521 154.501Z" fill="white"/>
</svg>
